<svg width="789" height="220" viewBox="0 0 789 220" fill="none" xmlns="http://www.w3.org/2000/svg">
<path d="M30.2976 150.752V146.202H19.9296C19.4112 150.176 19.0656 152.365 18.8928 152.768L18.5472 152.307C18.6624 151.904 18.3744 151.443 17.6256 150.925C16.8768 150.406 16.3008 150.176 15.84 150.176C15.0336 150.176 14.4 150.522 13.9968 151.213L13.8816 130.995C14.4 129.67 15.1488 129.037 16.0704 129.037C18.0864 129.037 19.0656 131.398 19.0656 136.179C19.008 136.525 19.008 136.87 19.008 137.216V137.619C19.0656 138.253 19.2384 138.771 19.4688 139.174H29.7792C29.7792 136.755 29.6064 133.933 29.3184 130.765C29.3184 130.822 29.4336 130.477 29.6064 129.728C29.7792 128.979 29.8944 128.346 29.8944 127.827C29.8944 125.178 29.2032 123.853 27.8208 123.853C27.1872 123.853 25.92 124.717 25.2864 124.717C24.3072 123.392 23.3856 122.067 22.464 120.742C21.4848 119.533 20.448 118.957 19.4688 118.957C19.008 118.957 17.9712 119.302 17.568 119.302C17.28 119.302 16.5888 119.014 15.6096 118.438C14.6304 117.805 13.6512 117.517 12.5568 117.517C11.52 117.517 10.1952 118.035 8.64 119.072C8.5248 119.994 7.8912 120.742 6.7968 121.261C5.2416 122.01 4.0896 122.816 3.3984 123.738C3.1104 124.141 2.7648 127.194 2.3616 133.011C1.9584 138.195 1.7856 141.651 1.7856 143.379C1.7856 148.218 1.9584 151.674 2.3616 153.747C3.1104 157.606 4.896 160.371 7.7184 162.042C10.08 163.366 13.4784 164 17.7984 164C22.2912 164 25.5168 162.906 27.4752 160.717C29.376 158.643 30.2976 155.302 30.2976 150.752ZM29.0304 128.461C29.0304 128.749 28.8576 129.728 28.4544 131.398C28.2816 132.09 28.224 132.838 28.224 133.645V134.336C28.224 134.624 28.224 134.97 28.2816 135.315C27.7632 133.99 27.36 132.954 27.072 132.32C26.496 130.88 26.0352 130.189 25.632 130.189C25.1712 130.189 24.48 131.226 24.0192 131.226C23.1552 131.226 22.4064 130.131 21.7152 127.942C21.024 125.696 20.6208 124.602 20.5056 124.602C20.2752 124.602 19.8144 124.947 19.1808 125.638C18.5472 126.33 18.0864 126.675 17.9136 126.675C17.856 126.675 17.4528 126.214 16.8192 125.293C16.1856 124.314 15.7248 123.853 15.3792 123.853C14.8032 123.853 14.3424 124.141 13.9968 124.774C13.7088 125.35 13.4208 125.638 13.1328 125.638C12.9024 125.638 12.1536 125.35 11.7504 125.408C10.8288 125.408 10.1376 126.387 9.6768 128.403C9.216 130.419 8.8704 131.398 8.64 131.341C8.6976 131.226 8.6976 131.11 8.6976 131.053V130.362C8.6976 129.152 8.352 128.518 7.7184 128.518C6.7968 128.518 6.1056 129.728 5.5872 132.147C5.472 132.781 5.2992 133.99 5.0688 135.776C3.8592 134.854 3.2832 133.587 3.2832 132.032C3.2832 129.901 3.6288 127.654 4.3776 125.35C5.0112 123.392 5.76 122.413 6.6816 122.413C6.9696 122.413 7.3152 122.47 7.6032 122.643C8.2944 121.664 8.9856 120.627 9.6768 119.59C10.5408 118.669 11.52 118.208 12.5568 118.208C12.96 118.208 13.824 118.669 15.1488 119.59C16.4736 120.454 17.28 120.915 17.568 120.915C18.4896 120.915 19.5264 120.109 19.584 120.109C20.16 120.109 20.9088 120.627 21.888 121.606C23.328 123.104 24.1344 124.198 24.2496 124.832L24.0192 125.523C24.0192 126.042 24.5952 127.194 24.5952 127.712C24.5952 127.942 24.5376 128.23 24.3648 128.576C24.5376 129.037 24.7104 129.267 24.9408 129.267C25.4592 129.267 25.7472 128.749 25.7472 127.654C25.7472 127.424 25.6896 127.136 25.632 126.733C25.632 125.293 26.0928 124.602 27.0144 124.602C27.5328 124.602 27.9936 125.12 28.3968 126.099C28.8 127.078 29.0304 127.827 29.0304 128.461ZM19.8144 156.742V157.549C19.8144 158.989 19.5264 159.968 18.8928 160.371C18.6624 160.256 18.144 160.026 17.28 159.622C16.4736 159.219 16.0704 158.758 16.0128 158.298L14.112 159.91C13.536 158.816 13.248 157.837 13.248 157.03C13.248 155.13 13.9392 153.344 15.264 151.558C16.3584 151.789 17.3376 152.422 18.3168 153.517C19.296 154.611 19.8144 155.648 19.8144 156.742ZM21.6576 123.392C21.6 123.104 21.2544 122.989 20.6208 122.989C20.2752 123.046 20.0448 123.219 19.872 123.507C19.8144 123.622 19.8144 123.68 19.9296 123.738L20.2752 123.622C20.448 123.622 21.024 124.026 21.2544 124.026C21.5424 124.026 21.6576 123.795 21.6576 123.392ZM17.568 122.989C17.5104 122.931 17.5104 122.816 17.5104 122.701C17.3376 122.47 17.1648 122.355 17.0496 122.355C16.992 122.355 16.9344 122.355 16.8768 122.413L16.7616 122.643C16.8192 122.816 17.1072 122.989 17.3376 122.989H17.568ZM11.2896 121.376C11.232 121.318 11.0016 121.261 10.4832 121.261C10.08 121.318 9.6768 121.549 9.216 122.067C9.1008 122.355 8.9856 122.586 8.928 122.874C9.1008 122.931 9.504 122.758 10.1952 122.355C10.944 121.952 11.2896 121.606 11.2896 121.376ZM16.0704 154.899C15.4368 154.957 15.0912 155.187 15.0336 155.533V155.706L15.4944 156.051C15.552 155.878 15.7248 155.821 15.9552 155.763C16.0128 155.763 16.3008 155.648 16.3008 155.418C16.3008 155.245 16.2432 155.072 16.0704 154.899ZM63.8055 133.126C63.5751 132.435 63.0567 130.477 62.1927 127.251C60.9831 122.816 60.3495 120.627 60.2919 120.57C60.0615 119.706 59.4279 118.957 58.3335 118.323C57.2391 117.69 56.2599 117.402 55.2807 117.402C54.9927 117.459 54.3591 117.805 53.2647 118.496C52.2279 119.187 51.5367 119.533 51.1911 119.533C51.1335 119.533 49.9815 118.899 49.5783 118.842C49.4055 118.784 48.8295 119.187 47.9655 119.936C47.1015 120.685 46.4679 121.088 46.0647 121.03C46.0071 121.03 45.3735 119.648 44.1639 119.648C43.0695 119.648 42.0903 120.051 41.2263 120.915C40.9959 120.915 40.7079 120.858 40.3047 120.685C39.4407 120.685 38.5191 121.203 37.5399 122.24C36.5607 123.219 36.0999 124.198 36.0999 125.062C36.0999 125.523 36.2727 126.33 36.6183 127.482C36.9639 128.634 37.1367 129.382 37.1367 129.728C36.1575 131.859 35.6391 134.854 35.6391 138.829C35.4663 139.866 35.4087 142.4 35.4087 146.374C35.4087 158.125 40.1319 164 49.5783 164C54.4743 164 57.9879 162.963 60.0615 160.947C62.9991 158.125 64.4391 152.595 64.4391 144.358C64.4391 140.845 64.2087 137.101 63.8055 133.126ZM62.0775 130.189C62.0775 130.707 61.9047 131.168 61.5591 131.456L61.7895 138.138C60.1191 130.822 59.0823 127.136 58.5639 127.136C57.9303 127.136 57.4119 128 57.0087 129.728C56.2599 128.403 55.6839 127.366 55.2807 126.733C54.3015 125.062 53.2071 124.198 52.1127 124.198C51.7095 124.198 51.3639 124.717 51.1911 125.696C51.0183 126.675 50.6727 127.136 50.2695 127.136C49.9239 127.136 49.2903 126.79 48.3687 126.099C47.4471 125.408 46.7559 125.062 46.2951 125.062C45.8919 125.062 45.3159 125.581 44.5671 126.56C43.8759 127.539 43.2999 128.115 42.8967 128.23C42.6087 127.827 42.2055 127.597 41.6871 127.597C41.4567 127.654 40.9959 127.942 40.2471 128.461C39.4983 128.979 39.0951 129.21 38.9223 129.152C38.4039 129.037 37.8855 128.403 37.4247 127.309C36.9639 126.214 36.7911 125.35 36.9063 124.832C36.9063 124.486 37.2519 123.968 37.9431 123.219C38.6919 122.47 39.2103 122.067 39.6135 121.952L40.3047 122.182C40.7079 122.182 41.3415 122.01 42.2631 121.664C43.2423 121.318 43.8183 121.146 44.1063 121.146C44.9127 121.146 45.5463 121.606 46.0647 122.528C46.4103 122.47 47.0439 122.067 47.9655 121.203C48.9447 120.339 49.5207 119.878 49.8087 119.878C50.7879 119.878 51.5943 121.261 51.6519 121.261C51.9399 121.261 52.4583 120.8 53.2071 119.936C53.7255 119.36 54.1863 118.784 54.7047 118.208C55.2231 118.208 56.0295 118.496 57.2391 119.072C58.4487 119.59 59.1399 120.109 59.3127 120.512C59.3703 120.627 59.5431 121.606 59.8311 123.507C60.1191 125.005 60.5223 125.926 61.0983 126.214C61.0407 126.445 61.0983 126.906 61.3287 127.654C61.7319 128.979 62.0199 129.843 62.0775 130.189ZM52.5159 155.13C50.4423 153.229 49.2903 152.307 49.0023 152.307C48.5415 152.365 48.1959 152.538 47.9655 152.768V130.189C47.9655 129.44 48.6567 128.23 49.3479 128.461C49.5207 128.518 49.6359 128.864 49.7511 129.498C49.8663 130.074 50.0391 130.362 50.2119 130.304C50.4999 130.304 50.7879 130.074 51.1335 129.555C51.4791 129.037 51.7095 128.806 51.7671 128.806C52.2855 128.806 52.5159 129.267 52.5159 130.189V155.13ZM51.8823 157.837C51.5943 159.507 51.3639 160.774 51.1911 161.638C50.8455 160.89 50.5575 160.314 50.3271 159.968C49.7511 159.104 49.1751 158.701 48.5991 158.701C48.4263 158.701 48.3111 158.701 48.1959 158.758C48.0231 158.413 47.9655 157.952 47.9655 157.434C47.9655 156.973 48.0807 156.339 48.2535 155.475C48.4839 154.438 48.7143 153.862 49.0023 153.805C51.0183 154.899 51.9399 156.282 51.8823 157.837ZM56.0871 122.298L54.8199 122.874C54.3015 122.528 53.9559 122.24 53.7831 121.952H53.5527L54.0711 123.219C54.3015 123.45 54.5319 123.565 54.7047 123.622L54.9351 123.738C55.3383 123.738 55.6839 123.507 55.9143 123.046L56.0871 122.298ZM42.0327 125.293C42.0327 124.832 41.0535 124.198 40.5351 124.198L40.4199 124.602L41.0535 125.12C41.2263 125.293 41.4567 125.408 41.6295 125.408C41.8023 125.408 41.9175 125.35 42.0327 125.293ZM98.5014 163.885V120.685C98.5014 120.454 98.0982 120.339 97.3494 120.339L95.8518 120.685C94.9878 119.533 94.2966 118.093 92.511 118.093C90.0342 118.093 88.8246 120.627 88.8246 125.696C88.8246 126.099 88.8246 126.618 88.8822 127.366V129.037L88.4214 129.613C88.2486 129.325 87.8454 129.152 87.327 129.152C86.5206 129.152 85.887 129.44 85.3686 130.074C84.6198 129.037 84.1014 127.424 83.8134 125.293C83.6406 123.68 83.4678 122.47 83.4102 121.664C83.3526 121.434 82.8342 120.915 81.855 120.109C80.9334 119.245 80.415 118.669 80.3574 118.323C79.839 117.69 79.263 117.402 78.6294 117.402C77.8806 117.459 77.1318 117.747 76.4406 118.323C75.7494 118.899 75.4038 119.187 75.4614 119.187C75.1734 119.187 74.7126 118.957 74.1942 118.438C73.6758 117.92 73.2726 117.632 72.8694 117.632C71.1414 117.632 70.2774 120.224 70.2774 125.408L70.2198 164H80.6454V147.008L87.2694 163.885H98.5014ZM97.2342 121.491C97.407 121.779 97.4646 122.182 97.4646 122.643C97.4646 123.334 97.119 124.717 96.4278 126.733C95.7366 128.749 95.391 130.304 95.391 131.456C94.7574 129.786 93.951 128.23 92.9718 126.79C91.8774 125.466 90.8406 124.198 89.8038 122.874C90.0918 122.125 90.3798 121.434 90.6678 120.685C91.1286 119.763 91.647 119.245 92.1654 119.187C92.7414 119.014 93.4326 119.475 94.239 120.454C95.0454 121.434 95.679 121.952 96.0822 121.952C96.255 121.952 96.543 121.894 96.831 121.722C96.8886 121.664 97.0614 121.606 97.2342 121.491ZM83.1798 125.638C83.1798 126.56 82.9494 127.482 82.4886 128.346L81.9702 128.461C81.9702 126.79 80.991 125.408 79.0902 124.198C78.5718 124.486 78.0534 125.581 77.5926 127.424C77.3622 128.346 77.1894 128.864 77.0166 129.037C75.6342 127.078 74.7702 126.042 74.4822 125.984C73.6182 127.77 72.9846 128.864 72.5814 129.267C71.6598 125.754 71.199 123.392 71.199 122.182C71.199 121.549 71.3142 120.915 71.487 120.166C71.775 119.187 72.1206 118.726 72.5814 118.726C72.8694 118.726 73.3878 119.014 74.1366 119.59C74.8854 120.166 75.3462 120.454 75.519 120.454C75.5766 120.454 75.9798 120.109 76.8438 119.418C77.7078 118.669 78.2262 118.323 78.5142 118.323C78.8022 118.323 79.3206 118.842 80.1846 119.936C81.0486 120.973 81.7398 121.491 82.2006 121.491C82.8342 123.046 83.1798 124.429 83.1798 125.638ZM89.8038 138.022C89.6886 137.965 89.5734 137.965 89.5158 137.965H88.8822C87.1542 137.965 86.3478 138.483 86.5206 139.52H86.175L85.9446 134.624C85.887 134.106 86.175 133.184 86.751 131.802C86.751 131.629 86.1174 130.938 86.2902 130.65C86.3478 130.534 86.463 130.362 86.751 130.074C87.4998 130.189 88.1334 130.765 88.767 131.744C89.5158 133.126 89.919 134.509 89.8614 135.949C89.8038 136.928 89.8038 137.331 89.8038 137.158V138.022ZM76.5558 121.722V121.491C75.519 121.491 75.0006 121.837 75.0582 122.528C75.1734 122.586 75.2886 122.586 75.4038 122.586C75.6342 122.586 75.8646 122.47 76.1526 122.24C76.2678 122.182 76.383 122.01 76.5558 121.722ZM135.617 130.88V126.33C135.617 121.952 133.889 119.763 130.49 119.763C129.741 119.763 128.071 120.8 128.013 120.8C127.841 120.742 127.322 120.282 126.516 119.302C125.767 118.323 125.191 117.862 124.788 117.862C124.557 117.862 124.269 117.92 123.924 118.093C123.636 118.093 123.233 118.035 122.714 117.862C122.311 117.862 121.62 118.323 120.525 119.245C119.489 120.166 118.855 120.627 118.567 120.685C118.279 120.742 117.933 120.397 117.645 119.648C117.127 119.36 116.436 118.842 115.629 118.208C115.053 117.747 114.593 117.517 114.247 117.517C113.613 117.517 112.865 117.92 111.885 118.726C110.964 119.475 110.157 119.878 109.409 119.878C108.314 119.878 107.681 119.59 107.393 119.014C107.22 118.669 107.047 118.381 106.989 118.208C105.837 118.208 104.858 118.496 103.994 119.072C103.015 119.706 102.554 120.627 102.554 121.722C102.612 122.355 102.842 122.816 103.245 122.989V131.226H114.362V164H124.788V130.88H131.181C131.7 131.168 132.161 131.802 132.564 132.781C132.679 133.069 132.967 133.76 133.37 134.854C133.831 134.797 134.292 134.163 134.695 132.896C135.098 131.629 135.444 130.938 135.617 130.88ZM121.735 123.738V123.392C121.562 123.104 121.332 123.104 121.159 123.392C121.101 123.507 121.159 123.622 121.389 123.738C121.447 123.795 121.505 123.795 121.562 123.795C121.62 123.795 121.677 123.795 121.735 123.738ZM134.234 124.083L133.485 126.963C133.255 127.885 133.14 128.518 133.14 128.922C133.255 129.555 133.485 130.189 133.889 130.88L133.37 132.147C132.852 131.283 132.333 130.304 131.873 129.21C131.757 128.922 131.354 127.885 130.721 126.099C130.375 125.178 129.684 124.717 128.705 124.717C127.38 124.89 126.458 126.33 125.825 129.037C125.306 129.037 124.673 127.827 124.212 127.827C122.772 127.827 121.793 129.094 121.389 131.571L120.698 136.122C119.949 133.875 119.373 132.205 118.97 131.11C117.818 127.827 116.263 126.214 114.362 126.214C113.613 126.272 112.519 127.251 112.289 127.251C110.273 125.12 108.89 124.083 108.141 124.083C107.969 124.083 107.738 124.198 107.45 124.371C106.932 124.774 106.529 124.947 106.298 124.947C106.01 124.947 105.492 124.486 104.743 123.507C104.052 122.528 103.706 121.837 103.706 121.491C103.706 120.282 104.167 119.648 105.146 119.648C105.607 119.648 106.241 119.878 107.047 120.282C107.853 120.685 108.487 120.915 108.948 120.915C109.121 120.915 109.581 120.627 109.985 120.685C110.676 120.685 111.425 120.339 112.173 119.706C112.922 119.072 113.613 118.726 114.132 118.726C114.42 118.726 114.938 119.13 115.745 119.936C117.3 121.491 118.106 122.298 118.221 122.298C118.625 122.298 119.431 121.779 120.641 120.685C121.85 119.59 122.829 119.014 123.693 119.072C124.327 119.13 125.191 119.821 126.228 121.203C126.631 121.779 127.149 122.01 127.668 121.952C127.841 121.952 128.589 121.779 129.799 121.376C130.317 121.203 130.778 121.146 131.181 121.146C133.197 121.146 134.234 122.125 134.234 124.083ZM125.133 122.643C125.191 122.125 124.097 121.146 123.463 121.146L123.233 121.376C123.06 121.606 123.578 121.837 123.866 122.067C124.385 122.701 124.73 122.989 124.903 122.874L125.133 122.643ZM120.813 124.314L120.122 124.429C119.834 124.602 119.546 124.659 119.316 124.659C119.201 124.659 119.085 124.602 119.028 124.544C118.509 123.91 118.164 123.622 117.991 123.622L117.645 123.738C117.876 124.947 118.337 125.523 119.028 125.523C119.661 125.523 120.756 124.832 120.813 124.314ZM169.299 164C169.242 163.424 168.551 160.198 167.226 154.266C166.016 148.678 164.807 143.494 163.655 138.656C162.675 134.566 162.042 131.859 161.754 130.534C161.927 128.634 162.042 126.387 162.099 123.853C162.099 123.45 161.927 122.989 161.523 122.413C160.775 121.376 160.429 120.627 160.429 120.224L160.544 119.418C160.544 118.208 159.738 117.632 157.607 117.574C156.282 117.517 155.418 117.459 155.072 117.402C155.015 117.402 154.669 118.554 153.805 118.554C153.056 118.554 152.595 119.936 152.192 119.763C151.904 119.648 151.616 119.475 151.328 119.302C151.155 119.245 150.695 119.187 150.061 119.187C148.275 119.187 147.411 120.339 147.411 122.643C147.411 123.507 147.699 124.198 148.333 124.717L145.799 135.603C143.725 144.416 142.343 150.406 141.651 153.574C140.211 159.968 139.52 163.424 139.52 164H148.679L150.752 156.858H157.203L159.162 164H169.299ZM161.408 125.869C161.408 126.848 161.235 128.634 160.832 131.341C160.717 132.147 160.544 133.299 160.314 134.739C160.256 134.739 159.911 133.645 159.392 131.398C158.874 129.152 158.471 127.885 158.24 127.597C158.183 127.424 157.491 126.214 157.434 126.214C157.203 126.157 157.088 126.445 157.088 127.021C157.088 127.309 157.664 128.173 157.664 128.576C157.434 129.267 157.261 129.728 157.203 130.016C156.973 130.822 156.8 131.283 156.627 131.456C156.051 131.456 155.533 130.477 155.13 128.576C154.727 126.618 154.496 125.638 154.381 125.638C153.978 125.638 153.805 126.963 153.805 129.613C153.632 129.555 153.344 128.749 152.826 127.309C152.307 125.811 151.962 125.062 151.731 125.062C151.213 125.062 150.867 125.466 150.752 126.214V128C150.752 129.555 150.522 130.304 150.061 130.304C149.888 130.304 149.773 130.016 149.773 129.44C149.773 129.21 149.773 128.864 149.831 128.403V127.309C149.831 125.869 149.485 124.314 148.736 122.758C148.563 122.355 148.448 121.894 148.448 121.491C148.448 120.397 148.967 119.878 149.946 119.878C150.119 119.878 150.407 119.994 150.867 120.224C151.674 120.627 152.25 120.8 152.538 120.8C152.711 120.8 152.999 120.57 153.344 120.051C153.517 119.878 153.632 119.763 153.805 119.763L154.381 119.878C154.554 119.878 154.727 119.59 154.899 118.957C155.072 118.323 155.303 118.035 155.533 117.978C155.936 117.92 157.261 118.726 157.434 118.726C157.664 118.669 157.952 118.554 158.24 118.323C159.219 118.323 160.199 119.821 160.199 120.915L160.083 121.722C160.083 121.837 160.256 122.067 160.544 122.355C161.12 122.931 161.408 124.083 161.408 125.869ZM155.879 148.218C155.418 148.506 154.151 148.045 152.077 146.778C152.135 146.374 152.365 145.338 152.768 143.552C153.632 140.038 154.208 138.022 154.496 137.619L155.879 148.218ZM155.763 151.213C155.648 151.155 155.533 151.098 155.475 151.098C155.245 151.04 155.072 150.982 154.957 150.982C154.669 151.04 154.208 151.443 153.575 152.134C152.941 152.768 152.595 153.114 152.538 153.114C152.48 153.114 152.365 152.365 152.135 150.925C151.962 149.485 151.847 148.621 151.847 148.333C152.077 148.16 152.25 148.102 152.423 148.102C152.653 148.102 153.056 148.333 153.632 148.736C154.208 149.139 154.611 149.37 154.842 149.37L155.418 149.254C155.591 149.542 155.763 149.946 155.821 150.464C155.763 150.752 155.763 150.982 155.763 151.213ZM157.895 119.994C157.895 119.821 157.491 119.763 156.743 119.763C155.994 119.763 155.648 119.994 155.648 120.512C155.648 120.627 155.706 120.742 155.763 120.8C156.167 120.627 156.57 120.512 156.973 120.339C157.607 120.339 157.895 120.224 157.895 119.994ZM202.684 150.752V146.202H192.316C191.798 150.176 191.452 152.365 191.279 152.768L190.934 152.307C191.049 151.904 190.761 151.443 190.012 150.925C189.263 150.406 188.687 150.176 188.226 150.176C187.42 150.176 186.786 150.522 186.383 151.213L186.268 130.995C186.786 129.67 187.535 129.037 188.457 129.037C190.473 129.037 191.452 131.398 191.452 136.179C191.394 136.525 191.394 136.87 191.394 137.216V137.619C191.452 138.253 191.625 138.771 191.855 139.174H202.166C202.166 136.755 201.993 133.933 201.705 130.765C201.705 130.822 201.82 130.477 201.993 129.728C202.166 128.979 202.281 128.346 202.281 127.827C202.281 125.178 201.59 123.853 200.207 123.853C199.574 123.853 198.306 124.717 197.673 124.717C196.694 123.392 195.772 122.067 194.85 120.742C193.871 119.533 192.834 118.957 191.855 118.957C191.394 118.957 190.358 119.302 189.954 119.302C189.666 119.302 188.975 119.014 187.996 118.438C187.017 117.805 186.038 117.517 184.943 117.517C183.906 117.517 182.582 118.035 181.026 119.072C180.911 119.994 180.278 120.742 179.183 121.261C177.628 122.01 176.476 122.816 175.785 123.738C175.497 124.141 175.151 127.194 174.748 133.011C174.345 138.195 174.172 141.651 174.172 143.379C174.172 148.218 174.345 151.674 174.748 153.747C175.497 157.606 177.282 160.371 180.105 162.042C182.466 163.366 185.865 164 190.185 164C194.678 164 197.903 162.906 199.862 160.717C201.762 158.643 202.684 155.302 202.684 150.752ZM201.417 128.461C201.417 128.749 201.244 129.728 200.841 131.398C200.668 132.09 200.61 132.838 200.61 133.645V134.336C200.61 134.624 200.61 134.97 200.668 135.315C200.15 133.99 199.746 132.954 199.458 132.32C198.882 130.88 198.422 130.189 198.018 130.189C197.558 130.189 196.866 131.226 196.406 131.226C195.542 131.226 194.793 130.131 194.102 127.942C193.41 125.696 193.007 124.602 192.892 124.602C192.662 124.602 192.201 124.947 191.567 125.638C190.934 126.33 190.473 126.675 190.3 126.675C190.242 126.675 189.839 126.214 189.206 125.293C188.572 124.314 188.111 123.853 187.766 123.853C187.19 123.853 186.729 124.141 186.383 124.774C186.095 125.35 185.807 125.638 185.519 125.638C185.289 125.638 184.54 125.35 184.137 125.408C183.215 125.408 182.524 126.387 182.063 128.403C181.602 130.419 181.257 131.398 181.026 131.341C181.084 131.226 181.084 131.11 181.084 131.053V130.362C181.084 129.152 180.738 128.518 180.105 128.518C179.183 128.518 178.492 129.728 177.974 132.147C177.858 132.781 177.686 133.99 177.455 135.776C176.246 134.854 175.67 133.587 175.67 132.032C175.67 129.901 176.015 127.654 176.764 125.35C177.398 123.392 178.146 122.413 179.068 122.413C179.356 122.413 179.702 122.47 179.99 122.643C180.681 121.664 181.372 120.627 182.063 119.59C182.927 118.669 183.906 118.208 184.943 118.208C185.346 118.208 186.21 118.669 187.535 119.59C188.86 120.454 189.666 120.915 189.954 120.915C190.876 120.915 191.913 120.109 191.97 120.109C192.546 120.109 193.295 120.627 194.274 121.606C195.714 123.104 196.521 124.198 196.636 124.832L196.406 125.523C196.406 126.042 196.982 127.194 196.982 127.712C196.982 127.942 196.924 128.23 196.751 128.576C196.924 129.037 197.097 129.267 197.327 129.267C197.846 129.267 198.134 128.749 198.134 127.654C198.134 127.424 198.076 127.136 198.018 126.733C198.018 125.293 198.479 124.602 199.401 124.602C199.919 124.602 200.38 125.12 200.783 126.099C201.186 127.078 201.417 127.827 201.417 128.461ZM192.201 156.742V157.549C192.201 158.989 191.913 159.968 191.279 160.371C191.049 160.256 190.53 160.026 189.666 159.622C188.86 159.219 188.457 158.758 188.399 158.298L186.498 159.91C185.922 158.816 185.634 157.837 185.634 157.03C185.634 155.13 186.326 153.344 187.65 151.558C188.745 151.789 189.724 152.422 190.703 153.517C191.682 154.611 192.201 155.648 192.201 156.742ZM194.044 123.392C193.986 123.104 193.641 122.989 193.007 122.989C192.662 123.046 192.431 123.219 192.258 123.507C192.201 123.622 192.201 123.68 192.316 123.738L192.662 123.622C192.834 123.622 193.41 124.026 193.641 124.026C193.929 124.026 194.044 123.795 194.044 123.392ZM189.954 122.989C189.897 122.931 189.897 122.816 189.897 122.701C189.724 122.47 189.551 122.355 189.436 122.355C189.378 122.355 189.321 122.355 189.263 122.413L189.148 122.643C189.206 122.816 189.494 122.989 189.724 122.989H189.954ZM183.676 121.376C183.618 121.318 183.388 121.261 182.87 121.261C182.466 121.318 182.063 121.549 181.602 122.067C181.487 122.355 181.372 122.586 181.314 122.874C181.487 122.931 181.89 122.758 182.582 122.355C183.33 121.952 183.676 121.606 183.676 121.376ZM188.457 154.899C187.823 154.957 187.478 155.187 187.42 155.533V155.706L187.881 156.051C187.938 155.878 188.111 155.821 188.342 155.763C188.399 155.763 188.687 155.648 188.687 155.418C188.687 155.245 188.63 155.072 188.457 154.899ZM239.182 130.88V126.33C239.182 121.952 237.454 119.763 234.055 119.763C233.307 119.763 231.636 120.8 231.579 120.8C231.406 120.742 230.887 120.282 230.081 119.302C229.332 118.323 228.756 117.862 228.353 117.862C228.123 117.862 227.835 117.92 227.489 118.093C227.201 118.093 226.798 118.035 226.279 117.862C225.876 117.862 225.185 118.323 224.091 119.245C223.054 120.166 222.42 120.627 222.132 120.685C221.844 120.742 221.499 120.397 221.211 119.648C220.692 119.36 220.001 118.842 219.195 118.208C218.619 117.747 218.158 117.517 217.812 117.517C217.179 117.517 216.43 117.92 215.451 118.726C214.529 119.475 213.723 119.878 212.974 119.878C211.879 119.878 211.246 119.59 210.958 119.014C210.785 118.669 210.612 118.381 210.555 118.208C209.403 118.208 208.423 118.496 207.559 119.072C206.58 119.706 206.119 120.627 206.119 121.722C206.177 122.355 206.407 122.816 206.811 122.989V131.226H217.927V164H228.353V130.88H234.747C235.265 131.168 235.726 131.802 236.129 132.781C236.244 133.069 236.532 133.76 236.935 134.854C237.396 134.797 237.857 134.163 238.26 132.896C238.663 131.629 239.009 130.938 239.182 130.88ZM225.3 123.738V123.392C225.127 123.104 224.897 123.104 224.724 123.392C224.667 123.507 224.724 123.622 224.955 123.738C225.012 123.795 225.07 123.795 225.127 123.795C225.185 123.795 225.243 123.795 225.3 123.738ZM237.799 124.083L237.051 126.963C236.82 127.885 236.705 128.518 236.705 128.922C236.82 129.555 237.051 130.189 237.454 130.88L236.935 132.147C236.417 131.283 235.899 130.304 235.438 129.21C235.323 128.922 234.919 127.885 234.286 126.099C233.94 125.178 233.249 124.717 232.27 124.717C230.945 124.89 230.023 126.33 229.39 129.037C228.871 129.037 228.238 127.827 227.777 127.827C226.337 127.827 225.358 129.094 224.955 131.571L224.263 136.122C223.515 133.875 222.939 132.205 222.535 131.11C221.383 127.827 219.828 126.214 217.927 126.214C217.179 126.272 216.084 127.251 215.854 127.251C213.838 125.12 212.455 124.083 211.707 124.083C211.534 124.083 211.303 124.198 211.015 124.371C210.497 124.774 210.094 124.947 209.863 124.947C209.575 124.947 209.057 124.486 208.308 123.507C207.617 122.528 207.271 121.837 207.271 121.491C207.271 120.282 207.732 119.648 208.711 119.648C209.172 119.648 209.806 119.878 210.612 120.282C211.419 120.685 212.052 120.915 212.513 120.915C212.686 120.915 213.147 120.627 213.55 120.685C214.241 120.685 214.99 120.339 215.739 119.706C216.487 119.072 217.179 118.726 217.697 118.726C217.985 118.726 218.503 119.13 219.31 119.936C220.865 121.491 221.671 122.298 221.787 122.298C222.19 122.298 222.996 121.779 224.206 120.685C225.415 119.59 226.395 119.014 227.259 119.072C227.892 119.13 228.756 119.821 229.793 121.203C230.196 121.779 230.715 122.01 231.233 121.952C231.406 121.952 232.155 121.779 233.364 121.376C233.883 121.203 234.343 121.146 234.747 121.146C236.763 121.146 237.799 122.125 237.799 124.083ZM228.699 122.643C228.756 122.125 227.662 121.146 227.028 121.146L226.798 121.376C226.625 121.606 227.143 121.837 227.431 122.067C227.95 122.701 228.295 122.989 228.468 122.874L228.699 122.643ZM224.379 124.314L223.687 124.429C223.399 124.602 223.111 124.659 222.881 124.659C222.766 124.659 222.651 124.602 222.593 124.544C222.075 123.91 221.729 123.622 221.556 123.622L221.211 123.738C221.441 124.947 221.902 125.523 222.593 125.523C223.227 125.523 224.321 124.832 224.379 124.314Z" fill="white"/>
<rect x="241" width="548" height="220" fill="#322E4B"/>
<path d="M460.989 145V102.146C460.989 100.59 459.434 99.784 456.381 99.784C455.862 99.784 455.229 99.8416 454.48 99.8992C453.731 99.9568 452.867 100.418 451.83 101.282C450.851 102.146 450.16 102.894 449.814 103.643L449.584 117.006C449.123 115.451 447.971 114.645 446.186 114.645C445.725 114.645 444.688 114.818 444.227 114.818C444.17 112.283 444.112 110.498 444.054 109.518C443.882 105.659 443.766 103.182 443.594 102.146C442.73 100.706 441.808 100.014 440.944 100.187C440.656 100.245 440.368 100.36 440.08 100.533C439.619 100.533 438.928 100.187 438.064 99.496C437.2 98.7472 436.566 98.4016 436.106 98.4016C435.242 98.5168 434.32 99.2656 433.398 100.706C432.477 102.146 432.016 103.298 432.016 104.219C432.074 104.45 432.592 105.774 432.592 105.947V145H444.227V127.317C444.227 126.338 444.515 125.819 445.034 125.819C445.667 125.819 446.07 126.798 446.358 128.814C446.531 129.909 446.704 130.658 446.877 130.946C447.165 130.542 447.51 129.16 447.914 126.856C448.086 125.992 448.259 125.589 448.49 125.589C449.526 125.589 450.045 126.165 450.045 127.317V145H460.989ZM460.298 105.198C459.088 106.293 458.282 108.366 457.59 110.152C456.957 109.518 456.611 109.173 456.438 109.058C456.093 108.77 455.69 108.654 455.286 108.597C454.653 108.597 454.134 109.173 453.731 110.267C453.616 110.613 453.501 111.131 453.386 111.88C452.867 110.325 452.464 109.115 452.176 108.309C451.37 105.89 450.966 104.507 450.966 104.219C450.966 103.125 451.715 102.261 453.155 101.57C454.365 101.051 455.574 100.763 456.784 100.763C459.376 100.763 460.643 101.627 460.643 103.355C460.643 103.874 460.528 104.507 460.298 105.198ZM443.133 105.314C443.133 106.408 442.096 109.346 440.022 114.242C439.677 112.744 439.446 111.592 439.274 110.843C438.755 108.597 438.294 107.445 437.834 107.445C437.258 107.445 436.739 107.906 436.278 108.885C435.875 109.864 435.587 110.325 435.53 110.382C435.126 110.44 434.608 109.461 433.974 107.502C433.456 105.717 433.168 104.45 433.168 103.758C433.168 102.722 433.398 101.858 433.802 101.109C434.32 100.187 435.011 99.7264 435.99 99.7264C436.682 99.7264 437.488 100.072 438.467 100.763C439.446 101.454 440.022 101.8 440.253 101.8C440.31 101.8 441.174 101.339 441.578 101.339C442.096 101.339 442.499 101.915 442.787 103.01C443.018 103.874 443.133 104.622 443.133 105.314ZM449.008 121.326C448.835 122.536 448.144 124.034 446.877 125.704C446.877 124.264 445.898 122.766 443.939 121.211C444.054 119.829 444.17 118.907 444.285 118.446C444.688 116.661 445.379 115.739 446.301 115.739C448.086 115.739 449.008 117.582 449.008 121.326ZM456.899 105.083L455.862 105.659C455.574 105.947 455.344 106.178 455.286 106.293C455.114 106.523 455.114 106.696 455.286 106.754C455.574 106.926 455.862 106.638 456.208 106.005C456.496 105.486 456.726 105.198 456.899 105.083ZM441.059 104.738C441.059 104.45 441.002 104.277 440.944 104.219C440.771 104.277 440.541 104.334 440.368 104.392C440.195 104.392 439.907 104.277 439.504 103.989C438.986 103.643 438.698 103.47 438.64 103.413C438.582 103.586 438.582 103.701 438.525 103.816C439.274 104.853 440.022 105.429 440.829 105.602C440.886 105.429 440.944 105.314 440.944 105.256C441.002 105.026 441.059 104.853 441.059 104.738ZM498.036 111.88V107.33C498.036 102.952 496.308 100.763 492.909 100.763C492.16 100.763 490.49 101.8 490.432 101.8C490.26 101.742 489.741 101.282 488.935 100.302C488.186 99.3232 487.61 98.8624 487.207 98.8624C486.976 98.8624 486.688 98.92 486.343 99.0928C486.055 99.0928 485.652 99.0352 485.133 98.8624C484.73 98.8624 484.039 99.3232 482.944 100.245C481.908 101.166 481.274 101.627 480.986 101.685C480.698 101.742 480.352 101.397 480.064 100.648C479.546 100.36 478.855 99.8416 478.048 99.208C477.472 98.7472 477.012 98.5168 476.666 98.5168C476.032 98.5168 475.284 98.92 474.304 99.7264C473.383 100.475 472.576 100.878 471.828 100.878C470.733 100.878 470.1 100.59 469.812 100.014C469.639 99.6688 469.466 99.3808 469.408 99.208C468.256 99.208 467.277 99.496 466.413 100.072C465.434 100.706 464.973 101.627 464.973 102.722C465.031 103.355 465.261 103.816 465.664 103.989V112.226H476.781V145H487.207V111.88H493.6C494.119 112.168 494.58 112.802 494.983 113.781C495.098 114.069 495.386 114.76 495.789 115.854C496.25 115.797 496.711 115.163 497.114 113.896C497.517 112.629 497.863 111.938 498.036 111.88ZM484.154 104.738V104.392C483.981 104.104 483.751 104.104 483.578 104.392C483.52 104.507 483.578 104.622 483.808 104.738C483.866 104.795 483.924 104.795 483.981 104.795C484.039 104.795 484.096 104.795 484.154 104.738ZM496.653 105.083L495.904 107.963C495.674 108.885 495.559 109.518 495.559 109.922C495.674 110.555 495.904 111.189 496.308 111.88L495.789 113.147C495.271 112.283 494.752 111.304 494.292 110.21C494.176 109.922 493.773 108.885 493.14 107.099C492.794 106.178 492.103 105.717 491.124 105.717C489.799 105.89 488.877 107.33 488.244 110.037C487.725 110.037 487.092 108.827 486.631 108.827C485.191 108.827 484.212 110.094 483.808 112.571L483.117 117.122C482.368 114.875 481.792 113.205 481.389 112.11C480.237 108.827 478.682 107.214 476.781 107.214C476.032 107.272 474.938 108.251 474.708 108.251C472.692 106.12 471.309 105.083 470.56 105.083C470.388 105.083 470.157 105.198 469.869 105.371C469.351 105.774 468.948 105.947 468.717 105.947C468.429 105.947 467.911 105.486 467.162 104.507C466.471 103.528 466.125 102.837 466.125 102.491C466.125 101.282 466.586 100.648 467.565 100.648C468.026 100.648 468.66 100.878 469.466 101.282C470.272 101.685 470.906 101.915 471.367 101.915C471.54 101.915 472 101.627 472.404 101.685C473.095 101.685 473.844 101.339 474.592 100.706C475.341 100.072 476.032 99.7264 476.551 99.7264C476.839 99.7264 477.357 100.13 478.164 100.936C479.719 102.491 480.525 103.298 480.64 103.298C481.044 103.298 481.85 102.779 483.06 101.685C484.269 100.59 485.248 100.014 486.112 100.072C486.746 100.13 487.61 100.821 488.647 102.203C489.05 102.779 489.568 103.01 490.087 102.952C490.26 102.952 491.008 102.779 492.218 102.376C492.736 102.203 493.197 102.146 493.6 102.146C495.616 102.146 496.653 103.125 496.653 105.083ZM487.552 103.643C487.61 103.125 486.516 102.146 485.882 102.146L485.652 102.376C485.479 102.606 485.997 102.837 486.285 103.067C486.804 103.701 487.149 103.989 487.322 103.874L487.552 103.643ZM483.232 105.314L482.541 105.429C482.253 105.602 481.965 105.659 481.735 105.659C481.62 105.659 481.504 105.602 481.447 105.544C480.928 104.91 480.583 104.622 480.41 104.622L480.064 104.738C480.295 105.947 480.756 106.523 481.447 106.523C482.08 106.523 483.175 105.832 483.232 105.314ZM540.589 145.058V107.33C540.589 102.261 539.667 99.7264 537.766 99.7264L535.635 100.59C534.944 100.878 534.31 100.994 533.792 100.994L531.258 99.2656C530.163 98.7472 528.838 98.5168 527.283 98.5168C526.822 98.5168 526.246 99.1504 525.613 100.36C525.037 101.454 524.691 102.261 524.634 102.837C524.115 103.24 523.597 104.277 523.194 105.89C523.078 106.293 522.848 107.445 522.502 109.346L521.466 109.461C520.774 107.099 520.429 105.544 520.429 104.738C520.429 103.989 520.602 103.355 520.89 102.722C520.89 101.627 520.602 100.648 520.083 99.8992C519.45 99.0352 518.586 98.632 517.491 98.632C516.685 98.632 515.59 99.3232 514.15 100.706C513.286 101.512 512.653 102.203 512.134 102.722L510.176 99.7264C509.312 98.8624 508.333 98.4016 507.181 98.4016C506.49 98.4016 505.568 99.208 504.474 100.878C503.379 102.491 502.861 103.701 502.861 104.507C502.861 105.256 503.091 105.947 503.552 106.523V145H513.286V123.918L517.837 145.058H525.555L529.702 123.918V145.058H540.589ZM537.19 102.146V101.8L536.038 101.915L537.19 102.146ZM539.552 103.874C538.573 106.638 538.112 108.482 538.112 109.461C537.133 110.67 536.442 111.304 535.923 111.304C535.174 111.304 534.541 110.325 534.022 108.424C533.504 106.523 532.986 105.544 532.41 105.544C531.085 105.544 530.394 108.366 530.394 114.011C530.278 113.781 530.106 112.629 529.818 110.498C529.587 108.942 529.126 107.963 528.435 107.56C528.32 106.638 527.917 106.12 527.168 106.062C526.707 106.005 526.016 107.502 526.016 108.021H525.786L525.555 103.758C525.498 102.894 525.786 101.915 526.304 100.821C526.88 99.7264 527.571 99.1504 528.435 99.1504C528.896 99.1504 529.875 99.6688 531.373 100.763C532.87 101.858 533.792 102.376 534.08 102.376C534.598 102.376 535.405 101.973 536.384 101.166C536.787 100.821 537.133 100.648 537.421 100.648C537.939 100.648 538.458 101.051 538.861 101.8C539.322 102.549 539.552 103.24 539.552 103.874ZM523.309 113.147L523.078 117.006C521.926 116.142 521.35 114.472 521.35 112.11C521.35 111.131 521.523 110.613 521.811 110.613C521.984 110.613 522.272 111.016 522.618 111.822C523.021 112.629 523.251 113.09 523.309 113.147ZM519.968 104.219C519.565 104.622 519.277 105.717 519.104 107.56C518.931 109.576 518.701 110.901 518.298 111.534C518.298 112.053 518.125 112.629 517.837 113.262C517.434 112.917 517.088 112.341 516.685 111.592C515.821 109.806 515.245 108.885 515.072 108.712L512.019 108.827C511.213 108.885 510.522 108.424 509.888 107.56C509.312 106.638 508.851 106.178 508.563 106.178C508.045 106.178 507.238 106.523 506.029 107.214C505.626 107.214 505.165 106.869 504.762 106.178C504.358 105.429 504.128 104.853 504.128 104.392C504.128 103.067 504.589 101.973 505.453 100.994C505.683 100.245 506.029 99.784 506.432 99.6112C506.49 99.5536 506.662 99.5536 506.95 99.6112C507.93 99.7264 509.024 100.475 510.118 101.858C511.213 103.24 511.962 103.931 512.307 103.931C512.538 103.931 513.286 103.298 514.496 102.088C515.706 100.821 516.742 100.187 517.491 100.187C518.413 100.187 519.046 100.648 519.45 101.627C519.622 102.03 519.795 102.894 519.968 104.219ZM529.184 100.418H528.666C527.917 100.59 527.571 100.821 527.629 100.994C527.686 101.224 528.032 101.282 528.666 101.109C528.838 101.051 529.011 100.821 529.184 100.418ZM518.067 101.915C517.837 101.627 517.549 101.454 517.146 101.454C516.742 101.512 516.57 101.627 516.57 101.915H518.067ZM508.102 101.339V100.821C507.987 100.475 507.699 100.302 507.181 100.302C506.547 100.302 506.317 100.59 506.374 101.224C506.432 100.994 506.662 100.878 506.95 100.878C507.469 101.051 507.872 101.224 508.102 101.339ZM575.063 144.942C575.236 144.078 575.351 142.523 575.351 140.334C575.351 136.014 574.718 132.501 573.508 129.851C573.393 129.794 573.278 129.736 573.163 129.736C572.759 129.678 572.356 129.621 571.953 129.621C571.089 129.621 570.11 129.909 569.015 130.542C566.884 131.752 565.559 132.386 564.983 132.386C564.465 132.386 563.774 132.098 562.967 131.464C562.91 131.522 562.679 131.579 562.334 131.579L561.067 131.464C560.663 131.406 560.26 131.406 559.857 131.406C559.281 131.406 558.705 131.637 558.187 132.04V104.277C557.841 103.758 557.495 103.298 557.15 102.779C556.631 102.088 556.171 101.685 555.883 101.627C555.825 101.627 555.652 101.685 555.422 101.742C554.903 101.858 554.27 101.57 553.521 100.878C552.657 100.13 551.793 99.7264 551.044 99.7264C549.547 99.8992 548.107 100.878 546.724 102.722L546.667 145.173H561.124C561.527 145.461 561.758 145.634 561.873 145.691C562.391 146.037 562.679 146.21 562.852 146.21C563.716 146.21 564.292 145.922 564.523 145.403C564.811 145.346 565.559 145.288 566.827 145.288H570.34C572.875 145.288 574.43 145.173 575.063 144.942ZM557.035 104.507C556.055 108.021 555.307 111.477 554.846 114.818C553.982 114.299 553.406 113.378 553.175 112.11C553.06 111.477 553.003 110.382 553.003 108.77C553.003 108.309 552.715 108.136 552.196 108.309C551.735 108.482 550.295 109.461 550.007 109.461C549.604 108.021 548.855 106.062 547.646 103.586C547.588 103.24 547.646 102.894 547.819 102.606C548.567 101.282 549.489 100.59 550.699 100.418C551.217 100.36 551.678 100.533 552.139 101.051C553.233 102.203 553.924 102.779 554.327 102.779C555.998 102.779 556.919 103.355 557.035 104.507ZM572.759 130.773C573.508 131.752 573.911 133.422 573.911 135.784C573.911 136.821 573.796 137.973 573.623 139.24C573.335 141.141 572.932 142.12 572.414 142.12C571.895 142.12 571.377 141.832 570.859 141.256C569.822 140.046 569.015 139.47 568.497 139.47C567.633 139.47 566.596 140.162 565.387 141.486C564.177 142.811 563.659 143.848 563.831 144.597L562.967 145.518C562.334 143.848 561.815 142.581 561.47 141.717C560.548 139.47 559.569 137.973 558.532 137.224L558.302 134.229C558.475 132.846 559.108 132.155 560.203 132.155C560.663 132.155 561.931 132.846 562.391 132.846C562.564 132.846 562.737 132.789 562.967 132.616L563.889 133.25C564.235 133.538 564.638 133.653 565.099 133.653C565.502 133.653 566.654 133.192 568.555 132.213C570.455 131.234 571.838 130.773 572.759 130.773ZM551.851 101.282C551.908 101.109 551.793 100.994 551.505 100.936H550.814C549.892 100.936 549.374 101.224 549.316 101.858C549.719 101.858 550.123 101.858 550.526 101.8C551.39 101.627 551.793 101.454 551.851 101.282ZM572.414 136.994C572.356 136.36 572.241 135.726 572.183 135.093C572.011 134.229 571.665 133.768 571.147 133.768C570.686 133.768 570.11 134.402 570.11 134.862C570.167 134.978 570.513 135.323 571.262 135.899C572.011 136.418 572.414 136.821 572.414 136.994ZM564.523 139.931C564.465 139.528 564.062 139.01 563.313 138.261C563.255 138.203 562.679 137.742 561.7 136.878L561.47 137.454C562.967 139.125 564.004 139.931 564.523 139.931Z" fill="white"/>
</svg>
